<?xml version="1.0" standalone="no"?><!DOCTYPE svg PUBLIC "-//W3C//DTD SVG 1.1//EN" "http://www.w3.org/Graphics/SVG/1.1/DTD/svg11.dtd"><svg t="1570686434762" class="icon" viewBox="0 0 1024 1024" version="1.1" xmlns="http://www.w3.org/2000/svg" p-id="2274" width="16" height="16" xmlns:xlink="http://www.w3.org/1999/xlink"><defs><style type="text/css"></style></defs><path d="M536.3712 123.3408a30.72 30.72 0 0 0-46.5408 0c-28.8256 33.4336-281.6 331.1616-281.6 489.4208a304.896 304.896 0 0 0 609.7408 0c0-158.2592-252.8256-455.9872-281.6-489.4208z m-23.296 601.1392A93.3888 93.3888 0 0 1 419.84 631.1936c0-43.6736 57.0368-113.2544 74.5472-133.5296a24.7296 24.7296 0 0 1 37.4784 0c17.5104 20.48 74.5984 89.856 74.5984 133.5296a93.3888 93.3888 0 0 1-93.3888 93.2864z" fill="#1296db" p-id="2275"></path></svg>